<svg width="29" height="31" viewBox="0 0 29 31" fill="none" xmlns="http://www.w3.org/2000/svg">
<path d="M14.8909 25.167C17.3519 25.1207 20.5617 25.0394 20.5617 21.6372C20.5617 18.0575 17.6403 18.0174 16.1411 17.9752H9.76603V25.167H14.8909ZM26.4029 17.809C27.4448 18.941 28.0304 20.5758 28.0304 22.267C28.0304 24.5789 26.8207 27.8133 23.15 29.4532C20.9399 30.4231 18.5595 30.5481 15.1819 30.5481H2.7582V12.5544L15.3081 12.5885C16.9757 12.5493 19.6871 12.468 19.6871 9.39566C19.6871 6.5353 17.2276 6.41077 15.8085 6.41077L6.25654 6.38484L0.777832 0.860352H14.143C17.2276 0.860352 20.0233 0.98591 21.8181 1.57658C25.4427 2.75082 26.9033 5.65641 26.9033 8.47355C26.9033 10.0666 26.4846 11.0391 26.3613 11.3263C25.0269 14.3564 22.1882 14.9456 20.6084 15.2811C22.4011 15.5759 24.7744 15.9587 26.4029 17.809Z" fill="#333333"/>
</svg>
