<svg width="122" height="32" viewBox="0 0 122 32" fill="none" xmlns="http://www.w3.org/2000/svg">
<path d="M37.0399 10.8713C38.456 9.65084 40.0018 8.68248 43.3349 8.34342V14.0672L41.2126 14.4062C38.129 14.9537 37.2062 15.4102 37.2062 18.1917V30.5486H30.783V8.55387H37.0404L37.0399 10.8713ZM58.9928 22.2655C58.9441 23.4478 58.902 24.5382 57.529 25.3764C56.5693 25.9264 55.6921 25.9264 55.3195 25.9264C54.0256 25.9264 53.149 25.3363 52.7738 24.833C52.2749 24.1549 52.2749 23.1916 52.2749 22.2278V8.60064H45.8152V22.3875C45.8152 25.9656 46.023 27.2674 47.145 28.8696C48.6473 30.9716 51.2736 31.1815 52.6912 31.1815C54.1128 31.1815 55.5253 30.8379 56.8197 30.1755C57.9853 29.5854 58.361 29.164 58.9923 28.4487V30.5491H65.4135V8.60064H58.9923L58.9928 22.2655ZM14.8909 25.167C17.3519 25.1207 20.5617 25.0394 20.5617 21.6372C20.5617 18.0575 17.6403 18.0174 16.1411 17.9752H9.76603V25.167H14.8909ZM26.4029 17.809C27.4448 18.941 28.0304 20.5758 28.0304 22.267C28.0304 24.5789 26.8207 27.8133 23.15 29.4532C20.9399 30.4231 18.5595 30.5481 15.1819 30.5481H2.7582V12.5544L15.3081 12.5885C16.9757 12.5493 19.6871 12.468 19.6871 9.39566C19.6871 6.5353 17.2276 6.41077 15.8085 6.41077L6.25654 6.38484L0.777832 0.860352H14.143C17.2276 0.860352 20.0233 0.98591 21.8181 1.57658C25.4427 2.75082 26.9033 5.65641 26.9033 8.47355C26.9033 10.0666 26.4846 11.0391 26.3613 11.3263C25.0269 14.3564 22.1882 14.9456 20.6084 15.2811C22.4011 15.5759 24.7744 15.9587 26.4029 17.809ZM75.8111 8.63977H69.3514V30.5497H75.7726V18.696C75.7726 15.9587 75.7726 13.2249 79.1518 13.2249C80.4016 13.2249 81.5261 13.7352 82.0271 14.9049C82.275 15.4971 82.3186 16.2088 82.3186 18.1933V30.5502H88.6972V15.5383C88.6972 12.133 88.1157 10.1546 85.8215 8.93308C84.6934 8.30682 83.2332 8.05825 81.9424 8.05825C80.4016 8.05825 78.9804 8.43085 77.9822 8.85276C76.8586 9.39616 76.4368 9.90195 75.8111 10.578V8.63977ZM97.5876 16.8564C97.7939 15.9317 98.0048 14.9191 98.8845 13.9523C99.5056 13.2803 100.592 12.5234 102.133 12.5234C103.262 12.5234 104.472 12.9438 105.267 13.7479C106.179 14.7107 106.344 15.9317 106.469 16.8564H97.5876ZM107.272 23.1632C106.932 24.3232 105.735 26.356 102.232 26.356C98.7699 26.356 97.507 23.6257 97.5475 20.8909H113.103C113.015 18.4103 112.852 14.1205 110.01 11.0503C107.225 8.02064 103.467 7.9027 102.171 7.9027C93.5868 7.9027 91 14.7102 91 20.0075C91 27.1998 95.5418 31.3594 102.005 31.3594C105.513 31.3594 108.341 30.0139 110.224 28.2546C111.347 27.1998 112.559 25.4359 112.814 23.1627L107.272 23.1632ZM121.778 0.864419H115.355V30.5491H121.778V0.864419Z" fill="#333333"/>
</svg>
